<?xml version="1.0" encoding="UTF-8"?>
<svg xmlns="http://www.w3.org/2000/svg" viewBox="0 0 900 520" width="900" height="520">
  <defs>
    <filter id="shadow" x="-4%" y="-4%" width="108%" height="112%">
      <feDropShadow dx="0" dy="2" stdDeviation="4" flood-color="#000" flood-opacity=".08"/>
    </filter>
  </defs>
  <rect width="900" height="520" rx="16" fill="#f8fafc"/>
  <text x="450" y="36" text-anchor="middle" font-size="15" font-weight="bold" fill="#1e293b" font-family="sans-serif">FEATURE BACON - ARCHITECTURE</text>
  <rect x="160" y="56" width="250" height="64" rx="12" fill="#2563eb" filter="url(#shadow)"/>
  <text x="285" y="82" text-anchor="middle" font-size="11" font-weight="bold" fill="#c7d9ff" font-family="sans-serif">MANAGEMENT UI</text>
  <text x="285" y="102" text-anchor="middle" font-size="13" font-weight="bold" fill="#fff" font-family="sans-serif">React / Next.js</text>
  <rect x="490" y="56" width="250" height="64" rx="12" fill="#2563eb" filter="url(#shadow)"/>
  <text x="615" y="82" text-anchor="middle" font-size="11" font-weight="bold" fill="#c7d9ff" font-family="sans-serif">YOUR APPLICATIONS</text>
  <text x="615" y="102" text-anchor="middle" font-size="13" font-weight="bold" fill="#fff" font-family="sans-serif">Web, Mobile, Backend</text>
  <line x1="285" y1="120" x2="380" y2="170" stroke="#94a3b8" stroke-width="2" stroke-dasharray="6,4"/>
  <line x1="615" y1="120" x2="520" y2="170" stroke="#94a3b8" stroke-width="2" stroke-dasharray="6,4"/>
  <text x="450" y="152" text-anchor="middle" font-size="10" font-weight="bold" fill="#94a3b8" font-family="sans-serif">HTTP</text>
  <rect x="200" y="172" width="500" height="100" rx="14" fill="#1e293b" filter="url(#shadow)"/>
  <text x="450" y="198" text-anchor="middle" font-size="11" font-weight="bold" fill="#8899aa" font-family="sans-serif">BACON-CORE (Go)</text>
  <rect x="224" y="210" width="200" height="48" rx="8" fill="none" stroke="#445566" stroke-width="1"/>
  <text x="324" y="230" text-anchor="middle" font-size="11" font-weight="bold" fill="#8899aa" font-family="sans-serif">REST API</text>
  <text x="324" y="248" text-anchor="middle" font-size="13" font-weight="bold" fill="#fff" font-family="sans-serif">:8080</text>
  <rect x="476" y="210" width="200" height="48" rx="8" fill="none" stroke="#445566" stroke-width="1"/>
  <text x="576" y="230" text-anchor="middle" font-size="11" font-weight="bold" fill="#8899aa" font-family="sans-serif">EVALUATION</text>
  <text x="576" y="248" text-anchor="middle" font-size="13" font-weight="bold" fill="#fff" font-family="sans-serif">Engine</text>
  <line x1="424" y1="234" x2="472" y2="234" stroke="#667788" stroke-width="2"/>
  <polygon points="470,229 480,234 470,239" fill="#667788"/>
  <text x="310" y="310" text-anchor="middle" font-size="10" font-weight="bold" fill="#94a3b8" font-family="sans-serif">gRPC + mTLS</text>
  <text x="590" y="310" text-anchor="middle" font-size="10" font-weight="bold" fill="#94a3b8" font-family="sans-serif">gRPC + mTLS</text>
  <line x1="324" y1="272" x2="260" y2="332" stroke="#94a3b8" stroke-width="2" stroke-dasharray="6,4"/>
  <line x1="576" y1="272" x2="520" y2="332" stroke="#94a3b8" stroke-width="2" stroke-dasharray="6,4"/>
  <line x1="576" y1="272" x2="730" y2="332" stroke="#94a3b8" stroke-width="2" stroke-dasharray="6,4"/>
  <rect x="60" y="334" width="180" height="80" rx="12" fill="#059669" filter="url(#shadow)"/>
  <text x="150" y="362" text-anchor="middle" font-size="11" font-weight="bold" fill="#a7f3d0" font-family="sans-serif">PERSISTENCE</text>
  <text x="150" y="382" text-anchor="middle" font-size="12" font-weight="bold" fill="#fff" font-family="sans-serif">PostgreSQL</text>
  <text x="150" y="400" text-anchor="middle" font-size="10" fill="#d1fae5" font-family="sans-serif">Redis / MongoDB / Config</text>
  <rect x="290" y="334" width="180" height="80" rx="12" fill="#059669" filter="url(#shadow)"/>
  <text x="380" y="362" text-anchor="middle" font-size="11" font-weight="bold" fill="#a7f3d0" font-family="sans-serif">PERSISTENCE</text>
  <text x="380" y="382" text-anchor="middle" font-size="12" font-weight="bold" fill="#fff" font-family="sans-serif">Redis</text>
  <text x="380" y="400" text-anchor="middle" font-size="10" fill="#d1fae5" font-family="sans-serif">Cache / Sidecar mode</text>
  <rect x="530" y="334" width="180" height="80" rx="12" fill="#7c3aed" filter="url(#shadow)"/>
  <text x="620" y="362" text-anchor="middle" font-size="11" font-weight="bold" fill="#ddd6fe" font-family="sans-serif">PUBLISHER</text>
  <text x="620" y="382" text-anchor="middle" font-size="12" font-weight="bold" fill="#fff" font-family="sans-serif">Apache Kafka</text>
  <text x="620" y="400" text-anchor="middle" font-size="10" fill="#ede9fe" font-family="sans-serif">Streaming / Event log</text>
  <rect x="750" y="334" width="135" height="80" rx="12" fill="#7c3aed" filter="url(#shadow)"/>
  <text x="817" y="362" text-anchor="middle" font-size="11" font-weight="bold" fill="#ddd6fe" font-family="sans-serif">PUBLISHER</text>
  <text x="817" y="382" text-anchor="middle" font-size="12" font-weight="bold" fill="#fff" font-family="sans-serif">SQS / Pub/Sub</text>
  <text x="817" y="400" text-anchor="middle" font-size="10" fill="#ede9fe" font-family="sans-serif">Queue / Cloud</text>
  <rect x="60" y="450" width="780" height="56" rx="10" fill="#fff" stroke="#e2e8f0" stroke-width="1"/>
  <circle cx="100" cy="478" r="8" fill="#2563eb"/>
  <text x="116" y="482" font-size="11" fill="#475569" font-family="sans-serif">Clients</text>
  <rect x="190" y="470" width="16" height="16" rx="4" fill="#1e293b"/>
  <text x="214" y="482" font-size="11" fill="#475569" font-family="sans-serif">Core (Go)</text>
  <circle cx="310" cy="478" r="8" fill="#059669"/>
  <text x="326" y="482" font-size="11" fill="#475569" font-family="sans-serif">Persistence modules</text>
  <circle cx="490" cy="478" r="8" fill="#7c3aed"/>
  <text x="506" y="482" font-size="11" fill="#475569" font-family="sans-serif">Publisher modules</text>
  <line x1="640" y1="478" x2="680" y2="478" stroke="#94a3b8" stroke-width="2" stroke-dasharray="6,4"/>
  <text x="690" y="482" font-size="11" fill="#94a3b8" font-family="sans-serif">gRPC + mTLS</text>
</svg>
